
<svg xmlns="http://www.w3.org/2000/svg" xml:space="preserve" width="334.153" height="346.538" viewBox="0 0 88.411 91.688"><path d="M56.066 182.793c-.356-.429-.818.268 10.406-15.662a5391.76 5391.76 0 0 0 14.285-20.373c3.038-4.366 8.741-12.522 12.673-18.124 9.322-13.282 15.38-21.963 20.707-29.666l4.322-6.25 2.163-.695c1.19-.382 2.216-.644 2.28-.58.145.146-2.744 4.37-14.488 21.183a12834.66 12834.66 0 0 0-15.123 21.696c-6.842 9.85-19.376 27.802-25.402 36.38-2.402 3.42-4.576 6.54-4.832 6.934l-.466.716 10.582.017 10.583.017 2.884-4.04a745.132 745.132 0 0 0 4.444-6.29c.858-1.236 4.67-6.654 8.469-12.038 3.8-5.384 10.942-15.564 15.872-22.622 10.853-15.536 18.558-26.516 20.98-29.898.99-1.382 3.097-4.347 4.681-6.588 2.574-3.642 2.907-4.015 3.133-3.508.33.74 1.069-.377-13.98 21.14a15853.974 15853.974 0 0 0-16.943 24.26 2975.094 2975.094 0 0 1-9.278 13.247c-2.77 3.93-7.34 10.418-10.157 14.42-2.817 4.002-6.622 9.36-8.457 11.906l-3.337 4.63-12.856.07c-10.399.055-12.91.001-13.145-.282zm31.354.168c-.506-.505.237-1.781 4.803-8.248 2.739-3.88 6.04-8.571 7.337-10.427l2.358-3.373h4.136l-.775.992c-1.291 1.654-11.186 15.711-11.339 16.108-.12.316 3.553.36 25.024.3 13.84-.038 25.165.027 25.165.146 0 .12-.804 1.213-1.786 2.43l-1.786 2.214-26.48.017c-14.565.01-26.56-.062-26.657-.159zm19.601-21.975a8.42 8.42 0 0 1 1.72 0c.473.059.086.107-.86.107s-1.333-.048-.86-.107zm-39.77-57.012-4.688-9.314.824-.687c1.144-.956 4.055-2.65 4.296-2.502.11.068 2.142 3.866 4.517 8.44l4.319 8.317 2.65.084c1.458.046 7.012.12 12.344.166l9.693.082 5.338-7.624c2.936-4.193 5.435-7.659 5.554-7.702.391-.14.55.766.236 1.354-.169.317-3.162 4.654-6.651 9.638l-6.345 9.062H71.94Z" style="fill:#03a9fc" transform="translate(-55.932 -91.433)"/></svg>